<?xml version="1.0" encoding="utf-8"?>
<!-- Generator: Adobe Illustrator 18.1.1, SVG Export Plug-In . SVG Version: 6.00 Build 0)  -->
<svg version="1.1" id="Layer_1" xmlns="http://www.w3.org/2000/svg" xmlns:xlink="http://www.w3.org/1999/xlink" x="0px" y="0px"
	 width="60px" height="57px" viewBox="0 0 60 57" enable-background="new 0 0 60 57" xml:space="preserve">
<g>
	<g>
		<g>
			<g>
				<g>
					<g>
						<path fill="#0B2A31" d="M0,56.8v-6.9h2.8c1.7,0,2.8,1,2.8,2.5v1.7c0,1.5-1,2.5-2.8,2.5H0V56.8z M4.3,52.4
							c0-0.8-0.7-1.2-1.4-1.2H1.4v4.3h1.4c0.8,0,1.4-0.4,1.4-1.2C4.3,54.3,4.3,52.4,4.3,52.4z"/>
					</g>
				</g>
				<g>
					<g>
						<path fill="#0B2A31" d="M10,56.9c-1.7,0-2.8-1-2.8-2.5v-2c0-1.5,1-2.5,2.8-2.5c1.7,0,2.8,1,2.8,2.5v2
							C12.8,56,11.9,56.9,10,56.9z M11.4,52.4c0-0.8-0.7-1.2-1.4-1.2s-1.4,0.4-1.4,1.2v2c0,0.8,0.7,1.2,1.4,1.2s1.4-0.4,1.4-1.2
							V52.4z"/>
					</g>
				</g>
				<g>
					<g>
						<path fill="#0B2A31" d="M18.4,53l-1.2,3.8h-1.5L14.3,50h1.4l0.9,4.7L18,50h0.9l1.4,4.7l0.9-4.7h1.4l-1.4,6.9h-1.5L18.4,53z"/>
					</g>
				</g>
				<path fill="#0B2A31" d="M30.1,50h1.4v4.9c0,1.4-0.9,2.1-2.2,2.1c-1.4,0-2.2-0.7-2.2-2.1h1.4c0,0.5,0.3,0.8,0.8,0.8
					c0.5,0,0.8-0.3,0.8-0.8V50H30.1z"/>
				<path fill="#0B2A31" d="M36.1,56.9c-1.7,0-2.8-1-2.8-2.5v-2c0-1.5,1-2.5,2.8-2.5c1.7,0,2.8,1,2.8,2.5v2
					C38.9,56,37.9,56.9,36.1,56.9z M37.5,52.4c0-0.8-0.7-1.2-1.4-1.2c-0.8,0-1.4,0.4-1.4,1.2v2c0,0.8,0.7,1.2,1.4,1.2
					s1.4-0.4,1.4-1.2V52.4z"/>
				<path fill="#0B2A31" d="M46.3,56.8h-1.4L42,52.3v4.5h-1.4v-6.9H42l2.8,4.5v-4.5h1.4V56.8z"/>
				<path fill="#0B2A31" d="M49.7,52.7h2.8V54h-2.8v1.5h3.2v1.3h-4.6v-6.9h4.6v1.3h-3.2V52.7z"/>
				<path fill="#0B2A31" d="M54.2,54.7h1.5c0.1,0.5,0.5,1,1.3,1c0.7,0,1.1-0.2,1.1-0.7c0-0.4-0.2-0.7-0.8-0.8L56,53.9
					c-1.2-0.3-1.7-1-1.7-2.1c0-1.4,1.2-2,2.5-2c1.5,0,2.4,0.8,2.6,2H58c-0.1-0.4-0.7-0.7-1.1-0.7c-0.5,0-1,0.2-1,0.7
					c0,0.4,0.3,0.5,0.8,0.7l1.2,0.3c1.2,0.3,1.7,1,1.7,2.1c0,1.2-0.9,2-2.5,2C55.3,56.9,54.4,56,54.2,54.7z"/>
			</g>
		</g>
		<g>
			<g>
				<path fill="#06A1D3" d="M39.7,13.3c-0.1-0.9-0.1-1.2-0.2-1.7c-0.8-2.8-3.4-4.9-6.5-4.9H20v26.5h6.7v6.7H13.3V0h19.8
					c6.7,0,12.2,4.9,13.2,11.3c0.1,0.7,0.1,1.3,0.1,2H39.7z"/>
			</g>
			<g>
				<path fill="#06A1D3" d="M46.3,18.2v8.2c0,7.3-6.2,13.3-13.5,13.3h-1.4V33h1.3c3.7,0,7-3.1,7-6.8v-8.2h6.7V18.2z"/>
			</g>
		</g>
	</g>
</g>
</svg>
