<?xml version="1.0" encoding="utf-8"?>
<!-- Generator: Adobe Illustrator 18.1.1, SVG Export Plug-In . SVG Version: 6.00 Build 0)  -->
<svg version="1.1" id="Layer_1" xmlns="http://www.w3.org/2000/svg" xmlns:xlink="http://www.w3.org/1999/xlink" x="0px" y="0px"
	 width="450px" height="190px" viewBox="204 438 450 190" enable-background="new 204 438 450 190" xml:space="preserve">
<g id="Layer_2_1_" display="none">
	<rect x="1030" y="944" display="inline" fill="#00FF3C" width="1426" height="515"/>
</g>
<g id="Layer_2" display="none">
	<rect x="687" y="956" display="inline" fill="#24F200" width="1245" height="393"/>
</g>
<g>
	<g>
		<g>
			<g>
				<g>
					<g>
						<path fill="#0B2A31" d="M204,527.7v-10.3h4.2c2.6,0,4.2,1.4,4.2,3.8v2.6c0,2.2-1.4,3.8-4.2,3.8L204,527.7L204,527.7z
							 M210.4,521.2c0-1.2-1-1.8-2.2-1.8H206v6.4h2.2c1.2,0,2.2-0.6,2.2-1.8C210.4,524,210.4,521.2,210.4,521.2z"/>
					</g>
				</g>
				<g>
					<g>
						<path fill="#0B2A31" d="M219,527.9c-2.6,0-4.2-1.4-4.2-3.8v-3c0-2.2,1.4-3.8,4.2-3.8c2.6,0,4.2,1.4,4.2,3.8v3
							C223.2,526.5,221.8,527.9,219,527.9z M221.2,521.1c0-1.2-1-1.8-2.2-1.8s-2.2,0.6-2.2,1.8v3c0,1.2,1,1.8,2.2,1.8
							s2.2-0.6,2.2-1.8V521.1z"/>
					</g>
				</g>
				<g>
					<g>
						<path fill="#0B2A31" d="M231.6,522.1l-1.8,5.8h-2.2l-2.2-10.3h2.2l1.3,7l2.2-7h1.3l2.2,7l1.3-7h2.2l-2.2,10.3h-2.2
							L231.6,522.1z"/>
					</g>
				</g>
				<path fill="#0B2A31" d="M249.1,517.5h2.2v7.4c0,2.2-1.3,3.1-3.2,3.1c-2.2,0-3.2-1-3.2-3.1h2.2c0,0.8,0.4,1.2,1.2,1.2
					s1.2-0.4,1.2-1.2v-7.4H249.1z"/>
				<path fill="#0B2A31" d="M258.1,527.9c-2.6,0-4.2-1.4-4.2-3.8v-3c0-2.2,1.4-3.8,4.2-3.8c2.6,0,4.2,1.4,4.2,3.8v3
					C262.4,526.5,260.9,527.9,258.1,527.9z M260.2,521.1c0-1.2-1-1.8-2.2-1.8s-2.2,0.6-2.2,1.8v3c0,1.2,1,1.8,2.2,1.8
					s2.2-0.6,2.2-1.8V521.1z"/>
				<path fill="#0B2A31" d="M273.4,527.7h-2.2L267,521v6.7h-2.2v-10.3h2.2l4.2,6.7v-6.7h2.2L273.4,527.7L273.4,527.7z"/>
				<path fill="#0B2A31" d="M278.5,521.5h4.2v2h-4.2v2.2h4.8v2h-6.8v-10.3h6.8v2h-4.8V521.5z"/>
				<path fill="#0B2A31" d="M285.4,524.5h2.2c0.2,0.8,0.8,1.4,2,1.4c1,0,1.6-0.4,1.6-1s-0.4-1-1.2-1.2l-2-0.4
					c-1.8-0.4-2.6-1.4-2.6-3.1c0-2.2,1.8-3,3.8-3c2.2,0,3.6,1.2,4,3H291c-0.2-0.6-1-1-1.6-1c-0.8,0-1.4,0.4-1.4,1s0.4,0.8,1.2,1
					l1.8,0.4c1.8,0.4,2.6,1.4,2.6,3.1c0,1.8-1.3,3-3.8,3C287,527.9,285.5,526.6,285.4,524.5z"/>
			</g>
		</g>
		<g>
			<g>
				<path fill="#00A1D3" d="M263.6,458c-0.2-1.3-0.2-1.8-0.4-2.6c-1.2-4.2-5-7.4-9.8-7.4h-19.5v39.7h10v10h-20V438h29.8
					c10,0,18.3,7.4,19.8,17c0.2,1,0.2,2,0.2,3H263.6z"/>
			</g>
			<g>
				<path fill="#00A1D3" d="M273.4,465.3v12.2c0,11-9.4,20-20.2,20H251v-10h2c5.6,0,10.4-4.6,10.4-10.2v-12.2h10V465.3L273.4,465.3z
					"/>
			</g>
		</g>
	</g>
</g>
<polyline fill="none" stroke="#4D4D4D" stroke-width="3" stroke-linecap="round" stroke-linejoin="round" stroke-miterlimit="10" points="
	207,571.5 222,587.5 207,603.5 "/>
<g>
	<g>
		<g>
			<g>
				<g>
					<g>
						<path fill="#0B2A31" d="M354,494.8v-6.9h2.8c1.7,0,2.8,1,2.8,2.5v1.7c0,1.5-1,2.5-2.8,2.5H354V494.8z M358.3,490.4
							c0-0.8-0.7-1.2-1.4-1.2h-1.4v4.3h1.4c0.8,0,1.4-0.4,1.4-1.2V490.4z"/>
					</g>
				</g>
				<g>
					<g>
						<path fill="#0B2A31" d="M364,494.9c-1.7,0-2.8-1-2.8-2.5v-2c0-1.5,1-2.5,2.8-2.5c1.7,0,2.8,1,2.8,2.5v2
							C366.8,494,365.9,494.9,364,494.9z M365.4,490.4c0-0.8-0.7-1.2-1.4-1.2s-1.4,0.4-1.4,1.2v2c0,0.8,0.7,1.2,1.4,1.2
							s1.4-0.4,1.4-1.2V490.4z"/>
					</g>
				</g>
				<g>
					<g>
						<path fill="#0B2A31" d="M372.4,491l-1.2,3.8h-1.5l-1.4-6.9h1.4l0.9,4.7l1.4-4.6h0.9l1.4,4.7l0.9-4.7h1.4l-1.4,6.9h-1.5
							L372.4,491z"/>
					</g>
				</g>
				<path fill="#0B2A31" d="M384.1,488h1.4v4.9c0,1.4-0.9,2.1-2.2,2.1c-1.4,0-2.2-0.7-2.2-2.1h1.4c0,0.5,0.3,0.8,0.8,0.8
					s0.8-0.3,0.8-0.8L384.1,488L384.1,488z"/>
				<path fill="#0B2A31" d="M390.1,494.9c-1.7,0-2.8-1-2.8-2.5v-2c0-1.5,1-2.5,2.8-2.5c1.7,0,2.8,1,2.8,2.5v2
					C392.9,494,391.9,494.9,390.1,494.9z M391.5,490.4c0-0.8-0.7-1.2-1.4-1.2s-1.4,0.4-1.4,1.2v2c0,0.8,0.7,1.2,1.4,1.2
					s1.4-0.4,1.4-1.2V490.4z"/>
				<path fill="#0B2A31" d="M400.3,494.8h-1.4l-2.8-4.5v4.5h-1.4v-6.9h1.4l2.8,4.5v-4.5h1.4V494.8z"/>
				<path fill="#0B2A31" d="M403.7,490.7h2.8v1.3h-2.8v1.5h3.2v1.3h-4.6v-6.9h4.6v1.3h-3.2V490.7z"/>
				<path fill="#0B2A31" d="M408.2,492.7h1.5c0.1,0.5,0.5,1,1.3,1c0.7,0,1.1-0.2,1.1-0.7s-0.2-0.7-0.8-0.8l-1.3-0.3
					c-1.2-0.3-1.7-1-1.7-2.1c0-1.4,1.2-2,2.5-2c1.5,0,2.4,0.8,2.6,2h-1.5c-0.1-0.4-0.7-0.7-1.1-0.7c-0.5,0-1,0.2-1,0.7
					s0.3,0.5,0.8,0.7l1.2,0.3c1.2,0.3,1.7,1,1.7,2.1c0,1.2-0.9,2-2.5,2C409.3,494.9,408.4,494,408.2,492.7z"/>
			</g>
		</g>
		<g>
			<g>
				<path fill="#00A1D3" d="M393.7,451.3c-0.1-0.9-0.1-1.2-0.2-1.7c-0.8-2.8-3.4-4.9-6.5-4.9h-13v26.5h6.7v6.7h-13.3V438h19.8
					c6.7,0,12.2,4.9,13.2,11.3c0.1,0.7,0.1,1.3,0.1,2H393.7z"/>
			</g>
			<g>
				<path fill="#00A1D3" d="M400.3,456.2v8.2c0,7.3-6.2,13.3-13.5,13.3h-1.4V471h1.3c3.7,0,7-3.1,7-6.8V456h6.7L400.3,456.2
					L400.3,456.2z"/>
			</g>
		</g>
	</g>
</g>
<polyline fill="none" stroke="#FFFFFF" stroke-width="3" stroke-linecap="round" stroke-linejoin="round" stroke-miterlimit="10" points="
	276,571.5 291,587.5 276,603.5 "/>
<g>
	<polygon fill="#3D4C4C" points="345,591 324,591 324,568 340,568 345,573.8 	"/>
</g>
<g>
	<polygon fill="#00A1D3" points="375,591 354,591 354,568 370,568 375,573.8 	"/>
</g>
<g>
	<g>
		<g>
			<g>
				<path fill="#00A1D3" d="M481.3,451.3c-0.1-0.9-0.1-1.2-0.2-1.7c-0.8-2.8-3.4-4.9-6.5-4.9h-13v26.5h6.7v6.7H455V438h19.8
					c6.7,0,12.2,4.9,13.2,11.3c0.1,0.7,0.1,1.3,0.1,2H481.3z"/>
			</g>
			<g>
				<path fill="#00A1D3" d="M487.9,456.2v8.2c0,7.3-6.2,13.3-13.5,13.3H473V471h1.3c3.7,0,7-3.1,7-6.8V456h6.7L487.9,456.2
					L487.9,456.2z"/>
			</g>
		</g>
	</g>
</g>
<polygon fill="#FFFFFF" points="414,578 404,578 414,568 "/>
<polygon fill="#2B3333" points="434,578 424,578 434,568 "/>
<polyline fill="none" stroke="#FFFFFF" stroke-width="2" stroke-linecap="round" stroke-linejoin="round" stroke-miterlimit="10" points="
	586,500 556,470 586,440 "/>
<polyline fill="none" stroke="#FFFFFF" stroke-width="2" stroke-linecap="round" stroke-linejoin="round" stroke-miterlimit="10" points="
	606,440 636,470 606,500 "/>
<g>
	
		<line fill="none" stroke="#FFFFFF" stroke-width="2" stroke-linecap="round" stroke-linejoin="round" stroke-miterlimit="10" x1="556" y1="560" x2="576" y2="540"/>
	
		<line fill="none" stroke="#FFFFFF" stroke-width="2" stroke-linecap="round" stroke-linejoin="round" stroke-miterlimit="10" x1="576" y1="560" x2="556" y2="540"/>
</g>
<g>
	<path fill="#FFFFFF" d="M341,580.8v3.2c0,0.1,0,0.1-0.1,0.2c0,0-0.1,0.1-0.2,0.1H339v1.2c0,0.2-0.1,0.4-0.2,0.5
		c-0.1,0.1-0.3,0.2-0.5,0.2h-7.5c-0.2,0-0.4-0.1-0.5-0.2c-0.1-0.1-0.2-0.3-0.2-0.5v-1.2h-1.8c-0.1,0-0.1,0-0.2-0.1
		c0,0-0.1-0.1-0.1-0.2v-3.2c0-0.4,0.1-0.8,0.4-1.1c0.3-0.3,0.6-0.4,1.1-0.4h0.5v-4.2c0-0.2,0.1-0.4,0.2-0.5c0.1-0.1,0.3-0.2,0.5-0.2
		h5.2c0.2,0,0.4,0.1,0.7,0.2s0.4,0.2,0.6,0.4l1.2,1.2c0.1,0.1,0.3,0.3,0.4,0.6c0.1,0.2,0.2,0.5,0.2,0.7v2h0.5c0.4,0,0.8,0.1,1.1,0.4
		C340.9,580.1,341,580.4,341,580.8z M331,580.3h7v-3h-1.2c-0.2,0-0.4-0.1-0.5-0.2c-0.1-0.1-0.2-0.3-0.2-0.5v-1.2h-5V580.3z
		 M331,585.3h7v-2h-7V585.3z M339.9,581.2c0.1-0.1,0.1-0.2,0.1-0.4s0-0.3-0.1-0.4c-0.1-0.1-0.2-0.1-0.4-0.1c-0.1,0-0.3,0-0.4,0.1
		c-0.1,0.1-0.1,0.2-0.1,0.4s0,0.3,0.1,0.4c0.1,0.1,0.2,0.1,0.4,0.1C339.6,581.3,339.8,581.3,339.9,581.2z"/>
</g>
<g>
	<path fill="#FFFFFF" d="M371,580.8v3.2c0,0.1,0,0.1-0.1,0.2c0,0-0.1,0.1-0.2,0.1H369v1.2c0,0.2-0.1,0.4-0.2,0.5
		c-0.1,0.1-0.3,0.2-0.5,0.2h-7.5c-0.2,0-0.4-0.1-0.5-0.2c-0.1-0.1-0.2-0.3-0.2-0.5v-1.2h-1.8c-0.1,0-0.1,0-0.2-0.1
		c0,0-0.1-0.1-0.1-0.2v-3.2c0-0.4,0.1-0.8,0.4-1.1c0.3-0.3,0.6-0.4,1.1-0.4h0.5v-4.2c0-0.2,0.1-0.4,0.2-0.5c0.1-0.1,0.3-0.2,0.5-0.2
		h5.2c0.2,0,0.4,0.1,0.7,0.2s0.4,0.2,0.6,0.4l1.2,1.2c0.1,0.1,0.3,0.3,0.4,0.6c0.1,0.2,0.2,0.5,0.2,0.7v2h0.5c0.4,0,0.8,0.1,1.1,0.4
		C370.9,580.1,371,580.4,371,580.8z M361,580.3h7v-3h-1.2c-0.2,0-0.4-0.1-0.5-0.2c-0.1-0.1-0.2-0.3-0.2-0.5v-1.2h-5V580.3z
		 M361,585.3h7v-2h-7V585.3z M369.9,581.2c0.1-0.1,0.1-0.2,0.1-0.4s0-0.3-0.1-0.4c-0.1-0.1-0.2-0.1-0.4-0.1c-0.1,0-0.3,0-0.4,0.1
		c-0.1,0.1-0.1,0.2-0.1,0.4s0,0.3,0.1,0.4c0.1,0.1,0.2,0.1,0.4,0.1C369.6,581.3,369.8,581.3,369.9,581.2z"/>
</g>
</svg>
