<?xml version="1.0" encoding="utf-8"?>
<!-- Generator: Adobe Illustrator 18.1.1, SVG Export Plug-In . SVG Version: 6.00 Build 0)  -->
<svg version="1.1" id="Layer_1" xmlns="http://www.w3.org/2000/svg" xmlns:xlink="http://www.w3.org/1999/xlink" x="0px" y="0px"
	 width="450px" height="190px" viewBox="-80 302 450 190" enable-background="new -80 302 450 190" xml:space="preserve">
<g id="Layer_2_1_" display="none">
	<rect x="950" y="1246" display="inline" fill="#00FF3C" width="1426" height="515"/>
</g>
<g id="Layer_2" display="none">
	<rect x="607" y="1258" display="inline" fill="#24F200" width="1245" height="393"/>
</g>
<g>
	<g>
		<g>
			<g>
				<g>
					<g>
						<path fill="#0B2A31" d="M-80,391.7v-10.3h4.2c2.6,0,4.2,1.4,4.2,3.8v2.6c0,2.2-1.4,3.8-4.2,3.8L-80,391.7L-80,391.7z
							 M-73.6,385.2c0-1.2-1-1.8-2.2-1.8H-78v6.4h2.2c1.2,0,2.2-0.6,2.2-1.8C-73.6,388-73.6,385.2-73.6,385.2z"/>
					</g>
				</g>
				<g>
					<g>
						<path fill="#0B2A31" d="M-65,391.9c-2.6,0-4.2-1.4-4.2-3.8v-3c0-2.2,1.4-3.8,4.2-3.8c2.6,0,4.2,1.4,4.2,3.8v3
							C-60.8,390.5-62.2,391.9-65,391.9z M-62.8,385.1c0-1.2-1-1.8-2.2-1.8s-2.2,0.6-2.2,1.8v3c0,1.2,1,1.8,2.2,1.8s2.2-0.6,2.2-1.8
							V385.1z"/>
					</g>
				</g>
				<g>
					<g>
						<path fill="#0B2A31" d="M-52.4,386.1l-1.8,5.8h-2.2l-2.2-10.3h2.2l1.3,7l2.2-7h1.3l2.2,7l1.3-7h2.2l-2.2,10.3h-2.2
							L-52.4,386.1z"/>
					</g>
				</g>
				<path fill="#0B2A31" d="M-34.9,381.5h2.2v7.4c0,2.2-1.3,3.1-3.2,3.1c-2.2,0-3.2-1-3.2-3.1h2.2c0,0.8,0.4,1.2,1.2,1.2
					s1.2-0.4,1.2-1.2v-7.4H-34.9z"/>
				<path fill="#0B2A31" d="M-25.9,391.9c-2.6,0-4.2-1.4-4.2-3.8v-3c0-2.2,1.4-3.8,4.2-3.8c2.6,0,4.2,1.4,4.2,3.8v3
					C-21.6,390.5-23.1,391.9-25.9,391.9z M-23.8,385.1c0-1.2-1-1.8-2.2-1.8s-2.2,0.6-2.2,1.8v3c0,1.2,1,1.8,2.2,1.8s2.2-0.6,2.2-1.8
					V385.1z"/>
				<path fill="#0B2A31" d="M-10.6,391.7h-2.2L-17,385v6.7h-2.2v-10.3h2.2l4.2,6.7v-6.7h2.2L-10.6,391.7L-10.6,391.7z"/>
				<path fill="#0B2A31" d="M-5.5,385.5h4.2v2h-4.2v2.2h4.8v2h-6.8v-10.3h6.8v2h-4.8V385.5z"/>
				<path fill="#0B2A31" d="M1.4,388.5h2.2c0.2,0.8,0.8,1.4,2,1.4c1,0,1.6-0.4,1.6-1s-0.4-1-1.2-1.2l-2-0.4
					c-1.8-0.4-2.6-1.4-2.6-3.1c0-2.2,1.8-3,3.8-3c2.2,0,3.6,1.2,4,3H7c-0.2-0.6-1-1-1.6-1c-0.8,0-1.4,0.4-1.4,1s0.4,0.8,1.2,1
					l1.8,0.4c1.8,0.4,2.6,1.4,2.6,3.1c0,1.8-1.3,3-3.8,3C3,391.9,1.5,390.6,1.4,388.5z"/>
			</g>
		</g>
		<g>
			<g>
				<path fill="#00A1D3" d="M-20.4,322c-0.2-1.3-0.2-1.8-0.4-2.6c-1.2-4.2-5-7.4-9.8-7.4h-19.5v39.7h10v10h-20V302h29.8
					c10,0,18.3,7.4,19.8,17c0.2,1,0.2,2,0.2,3H-20.4z"/>
			</g>
			<g>
				<path fill="#00A1D3" d="M-10.6,329.3v12.2c0,11-9.4,20-20.2,20H-33v-10h2c5.6,0,10.4-4.6,10.4-10.2v-12.2h10V329.3L-10.6,329.3z
					"/>
			</g>
		</g>
	</g>
</g>
<polyline fill="none" stroke="#4D4D4D" stroke-width="3" stroke-linecap="round" stroke-linejoin="round" stroke-miterlimit="10" points="
	-77,435.5 -62,451.5 -77,467.5 "/>
<g>
	<g>
		<g>
			<g>
				<g>
					<g>
						<path fill="#0B2A31" d="M70,358.8v-6.9h2.8c1.7,0,2.8,1,2.8,2.5v1.7c0,1.5-1,2.5-2.8,2.5H70V358.8z M74.3,354.4
							c0-0.8-0.7-1.2-1.4-1.2h-1.4v4.3h1.4c0.8,0,1.4-0.4,1.4-1.2V354.4z"/>
					</g>
				</g>
				<g>
					<g>
						<path fill="#0B2A31" d="M80,358.9c-1.7,0-2.8-1-2.8-2.5v-2c0-1.5,1-2.5,2.8-2.5c1.7,0,2.8,1,2.8,2.5v2
							C82.8,358,81.9,358.9,80,358.9z M81.4,354.4c0-0.8-0.7-1.2-1.4-1.2s-1.4,0.4-1.4,1.2v2c0,0.8,0.7,1.2,1.4,1.2s1.4-0.4,1.4-1.2
							V354.4z"/>
					</g>
				</g>
				<g>
					<g>
						<path fill="#0B2A31" d="M88.4,355l-1.2,3.8h-1.5l-1.4-6.9h1.4l0.9,4.7L88,352h0.9l1.4,4.7l0.9-4.7h1.4l-1.4,6.9h-1.5L88.4,355
							z"/>
					</g>
				</g>
				<path fill="#0B2A31" d="M100.1,352h1.4v4.9c0,1.4-0.9,2.1-2.2,2.1c-1.4,0-2.2-0.7-2.2-2.1h1.4c0,0.5,0.3,0.8,0.8,0.8
					s0.8-0.3,0.8-0.8L100.1,352L100.1,352z"/>
				<path fill="#0B2A31" d="M106.1,358.9c-1.7,0-2.8-1-2.8-2.5v-2c0-1.5,1-2.5,2.8-2.5c1.7,0,2.8,1,2.8,2.5v2
					C108.9,358,107.9,358.9,106.1,358.9z M107.5,354.4c0-0.8-0.7-1.2-1.4-1.2s-1.4,0.4-1.4,1.2v2c0,0.8,0.7,1.2,1.4,1.2
					s1.4-0.4,1.4-1.2V354.4z"/>
				<path fill="#0B2A31" d="M116.3,358.8h-1.4l-2.8-4.5v4.5h-1.4v-6.9h1.4l2.8,4.5v-4.5h1.4V358.8z"/>
				<path fill="#0B2A31" d="M119.7,354.7h2.8v1.3h-2.8v1.5h3.2v1.3h-4.6v-6.9h4.6v1.3h-3.2V354.7z"/>
				<path fill="#0B2A31" d="M124.2,356.7h1.5c0.1,0.5,0.5,1,1.3,1c0.7,0,1.1-0.2,1.1-0.7s-0.2-0.7-0.8-0.8l-1.3-0.3
					c-1.2-0.3-1.7-1-1.7-2.1c0-1.4,1.2-2,2.5-2c1.5,0,2.4,0.8,2.6,2h-1.5c-0.1-0.4-0.7-0.7-1.1-0.7c-0.5,0-1,0.2-1,0.7
					s0.3,0.5,0.8,0.7l1.2,0.3c1.2,0.3,1.7,1,1.7,2.1c0,1.2-0.9,2-2.5,2C125.3,358.9,124.4,358,124.2,356.7z"/>
			</g>
		</g>
		<g>
			<g>
				<path fill="#00A1D3" d="M109.7,315.3c-0.1-0.9-0.1-1.2-0.2-1.7c-0.8-2.8-3.4-4.9-6.5-4.9H90v26.5h6.7v6.7H83.4V302h19.8
					c6.7,0,12.2,4.9,13.2,11.3c0.1,0.7,0.1,1.3,0.1,2H109.7z"/>
			</g>
			<g>
				<path fill="#00A1D3" d="M116.3,320.2v8.2c0,7.3-6.2,13.3-13.5,13.3h-1.4V335h1.3c3.7,0,7-3.1,7-6.8V320h6.7L116.3,320.2
					L116.3,320.2z"/>
			</g>
		</g>
	</g>
</g>
<polyline fill="none" stroke="#FFFFFF" stroke-width="3" stroke-linecap="round" stroke-linejoin="round" stroke-miterlimit="10" points="
	-8,435.5 7,451.5 -8,467.5 "/>
<g>
	<polygon fill="#3D4C4C" points="61,455 40,455 40,432 56,432 61,437.8 	"/>
</g>
<g>
	<polygon fill="#00A1D3" points="91,455 70,455 70,432 86,432 91,437.8 	"/>
</g>
<g>
	<g>
		<g>
			<g>
				<path fill="#00A1D3" d="M197.3,315.3c-0.1-0.9-0.1-1.2-0.2-1.7c-0.8-2.8-3.4-4.9-6.5-4.9h-13v26.5h6.7v6.7H171V302h19.8
					c6.7,0,12.2,4.9,13.2,11.3c0.1,0.7,0.1,1.3,0.1,2H197.3z"/>
			</g>
			<g>
				<path fill="#00A1D3" d="M203.9,320.2v8.2c0,7.3-6.2,13.3-13.5,13.3H189V335h1.3c3.7,0,7-3.1,7-6.8V320h6.7L203.9,320.2
					L203.9,320.2z"/>
			</g>
		</g>
	</g>
</g>
<polygon fill="#FFFFFF" points="130,442 120,442 130,432 "/>
<polygon fill="#2B3333" points="150,442 140,442 150,432 "/>
<polyline fill="none" stroke="#FFFFFF" stroke-width="2" stroke-linecap="round" stroke-linejoin="round" stroke-miterlimit="10" points="
	302,364 272,334 302,304 "/>
<polyline fill="none" stroke="#FFFFFF" stroke-width="2" stroke-linecap="round" stroke-linejoin="round" stroke-miterlimit="10" points="
	322,304 352,334 322,364 "/>
<g>
	
		<line fill="none" stroke="#FFFFFF" stroke-width="2" stroke-linecap="round" stroke-linejoin="round" stroke-miterlimit="10" x1="272" y1="424" x2="292" y2="404"/>
	
		<line fill="none" stroke="#FFFFFF" stroke-width="2" stroke-linecap="round" stroke-linejoin="round" stroke-miterlimit="10" x1="292" y1="424" x2="272" y2="404"/>
</g>
<g>
	<path fill="#FFFFFF" d="M57,444.8v3.2c0,0.1,0,0.1-0.1,0.2c0,0-0.1,0.1-0.2,0.1H55v1.2c0,0.2-0.1,0.4-0.2,0.5s-0.3,0.2-0.5,0.2
		h-7.5c-0.2,0-0.4-0.1-0.5-0.2c-0.1-0.1-0.2-0.3-0.2-0.5v-1.2h-1.8c-0.1,0-0.1,0-0.2-0.1c0,0-0.1-0.1-0.1-0.2v-3.2
		c0-0.4,0.1-0.8,0.4-1.1s0.6-0.4,1.1-0.4H46v-4.2c0-0.2,0.1-0.4,0.2-0.5s0.3-0.2,0.5-0.2h5.2c0.2,0,0.4,0.1,0.7,0.2s0.4,0.2,0.6,0.4
		l1.2,1.2c0.1,0.1,0.3,0.3,0.4,0.6c0.1,0.2,0.2,0.5,0.2,0.7v2h0.5c0.4,0,0.8,0.1,1.1,0.4C56.9,444.1,57,444.4,57,444.8z M47,444.3h7
		v-3h-1.2c-0.2,0-0.4-0.1-0.5-0.2c-0.1-0.1-0.2-0.3-0.2-0.5v-1.2h-5L47,444.3L47,444.3z M47,449.3h7v-2h-7V449.3z M55.9,445.2
		c0.1-0.1,0.1-0.2,0.1-0.4s0-0.3-0.1-0.4c-0.1-0.1-0.2-0.1-0.4-0.1c-0.1,0-0.3,0-0.4,0.1s-0.1,0.2-0.1,0.4s0,0.3,0.1,0.4
		c0.1,0.1,0.2,0.1,0.4,0.1C55.6,445.3,55.8,445.3,55.9,445.2z"/>
</g>
<g>
	<path fill="#FFFFFF" d="M87,444.8v3.2c0,0.1,0,0.1-0.1,0.2c0,0-0.1,0.1-0.2,0.1H85v1.2c0,0.2-0.1,0.4-0.2,0.5s-0.3,0.2-0.5,0.2
		h-7.5c-0.2,0-0.4-0.1-0.5-0.2c-0.1-0.1-0.2-0.3-0.2-0.5v-1.2h-1.8c-0.1,0-0.1,0-0.2-0.1c0,0-0.1-0.1-0.1-0.2v-3.2
		c0-0.4,0.1-0.8,0.4-1.1s0.6-0.4,1.1-0.4H76v-4.2c0-0.2,0.1-0.4,0.2-0.5s0.3-0.2,0.5-0.2h5.2c0.2,0,0.4,0.1,0.7,0.2s0.4,0.2,0.6,0.4
		l1.2,1.2c0.1,0.1,0.3,0.3,0.4,0.6c0.1,0.2,0.2,0.5,0.2,0.7v2h0.5c0.4,0,0.8,0.1,1.1,0.4C86.9,444.1,87,444.4,87,444.8z M77,444.3h7
		v-3h-1.2c-0.2,0-0.4-0.1-0.5-0.2c-0.1-0.1-0.2-0.3-0.2-0.5v-1.2h-5L77,444.3L77,444.3z M77,449.3h7v-2h-7V449.3z M85.9,445.2
		c0.1-0.1,0.1-0.2,0.1-0.4s0-0.3-0.1-0.4c-0.1-0.1-0.2-0.1-0.4-0.1c-0.1,0-0.3,0-0.4,0.1s-0.1,0.2-0.1,0.4s0,0.3,0.1,0.4
		c0.1,0.1,0.2,0.1,0.4,0.1C85.6,445.3,85.8,445.3,85.9,445.2z"/>
</g>
<polyline fill="none" stroke="#FFFFFF" stroke-width="2" stroke-linecap="round" stroke-linejoin="round" stroke-miterlimit="10" points="
	71,402.5 61,392.5 71,382.5 "/>
<polyline fill="none" stroke="#FFFFFF" stroke-width="2" stroke-linecap="round" stroke-linejoin="round" stroke-miterlimit="10" points="
	91,382.5 101,392.5 91,402.5 "/>
</svg>
